<?xml version="1.0" encoding="UTF-8" standalone="no"?>
<!-- Created with Inkscape (http://www.inkscape.org/) -->

<svg
   xmlns:i="http://ns.adobe.com/AdobeIllustrator/10.0/"
   xmlns:dc="http://purl.org/dc/elements/1.1/"
   xmlns:cc="http://creativecommons.org/ns#"
   xmlns:rdf="http://www.w3.org/1999/02/22-rdf-syntax-ns#"
   xmlns:svg="http://www.w3.org/2000/svg"
   xmlns="http://www.w3.org/2000/svg"
   xmlns:sodipodi="http://sodipodi.sourceforge.net/DTD/sodipodi-0.dtd"
   xmlns:inkscape="http://www.inkscape.org/namespaces/inkscape"
   width="40"
   height="25"
   id="svg9408"
   version="1.1"
   inkscape:version="0.48.3.1 r9886"
   sodipodi:docname="New document 5">
  <defs
     id="defs9410" />
  <sodipodi:namedview
     id="base"
     pagecolor="#ffffff"
     bordercolor="#666666"
     borderopacity="1.0"
     inkscape:pageopacity="0.0"
     inkscape:pageshadow="2"
     inkscape:zoom="7"
     inkscape:cx="24"
     inkscape:cy="24"
     inkscape:current-layer="layer1"
     showgrid="true"
     inkscape:grid-bbox="true"
     inkscape:document-units="px"
     inkscape:window-width="1920"
     inkscape:window-height="1037"
     inkscape:window-x="2560"
     inkscape:window-y="25"
     inkscape:window-maximized="1" />
  <metadata
     id="metadata9413">
    <rdf:RDF>
      <cc:Work
         rdf:about="">
        <dc:format>image/svg+xml</dc:format>
        <dc:type
           rdf:resource="http://purl.org/dc/dcmitype/StillImage" />
        <dc:title></dc:title>
      </cc:Work>
    </rdf:RDF>
  </metadata>
  <g
     id="layer1"
     inkscape:label="Layer 1"
     inkscape:groupmode="layer"
     transform="translate(0,-23)">
    <g
       transform="translate(-184.38685,-190.74657)"
       id="g7752">
      <g
         id="g7754">
        <g
           id="g7756">
          <path
             style="fill:#ffdd00"
             inkscape:connector-curvature="0"
             i:knockout="Off"
             d="m 187.547,221.303 c 0,-3.428 2.779,-6.207 6.207,-6.207 h 20.98 c 3.428,0 6.207,2.779 6.207,6.207 v 10.03 c 0,3.428 -2.779,6.207 -6.207,6.207 h -20.98 c -3.428,0 -6.207,-2.779 -6.207,-6.207 v -10.03 l 0,0 z"
             id="path7758" />
          <path
             style="fill:#ffdd00"
             inkscape:connector-curvature="0"
             i:knockout="Off"
             d="M 204.244,226.318"
             id="path7760" />
        </g>
        <g
           id="g7762">
          <path
             style="fill:none;stroke:#000000;stroke-width:0.5;stroke-miterlimit:3.86369991"
             inkscape:connector-curvature="0"
             i:knockout="Off"
             stroke-miterlimit="3.8637"
             d="m 187.547,221.303 c 0,-3.428 2.779,-6.207 6.207,-6.207 h 20.98 c 3.428,0 6.207,2.779 6.207,6.207 v 10.03 c 0,3.428 -2.779,6.207 -6.207,6.207 h -20.98 c -3.428,0 -6.207,-2.779 -6.207,-6.207 v -10.03 l 0,0 z"
             id="path7764" />
          <path
             style="fill:none;stroke:#000000;stroke-width:0.5;stroke-miterlimit:3.86369991"
             inkscape:connector-curvature="0"
             i:knockout="Off"
             stroke-miterlimit="3.8637"
             d="M 204.244,226.318"
             id="path7766" />
        </g>
      </g>
      <g
         id="g7768">
        <polygon
           style="fill:#ffffff"
           i:knockout="Off"
           points="202.221,231.157 205.229,228.148 196.334,228.148 196.334,224.518 205.197,224.518 202.17,221.484 204.736,218.917 212.152,226.349 204.789,233.724 "
           id="polygon7770" />
        <polygon
           style="fill:none;stroke:#000000;stroke-width:0.5;stroke-miterlimit:3.86369991"
           i:knockout="Off"
           stroke-miterlimit="3.8637"
           points="202.221,231.157 205.229,228.148 196.334,228.148 196.334,224.518 205.197,224.518 202.17,221.484 204.736,218.917 212.152,226.349 204.789,233.724 "
           id="polygon7772" />
      </g>
    </g>
  </g>
</svg>
